<svg xmlns="http://www.w3.org/2000/svg" width="1600" height="1000" viewBox="0 0 1600 1000" role="img" aria-label="Nesting Tree – Shaurya — placeholder">
  <defs>
    <linearGradient id="g" x1="0" y1="0" x2="1" y2="1">
      <stop offset="0" stop-color="#f0e8d8"/>
      <stop offset="0.55" stop-color="#e4dac6"/>
      <stop offset="1" stop-color="#a98742"/>
    </linearGradient>
  </defs>
  <rect width="1600" height="1000" fill="url(#g)"/>
  <g opacity="0.16" fill="#211d17"><rect x="896.0" y="340.0" width="208.0" height="660.0"/><rect x="1120.0" y="200.0" width="256.0" height="800.0"/><rect x="1392.0" y="420.0" width="176.0" height="580.0"/></g><g opacity="0.5" fill="#faf6ee"><rect x="933.7" y="380.0" width="28.6" height="30.0"/><rect x="933.7" y="440.0" width="28.6" height="30.0"/><rect x="933.7" y="500.0" width="28.6" height="30.0"/><rect x="933.7" y="560.0" width="28.6" height="30.0"/><rect x="933.7" y="620.0" width="28.6" height="30.0"/><rect x="933.7" y="680.0" width="28.6" height="30.0"/><rect x="933.7" y="740.0" width="28.6" height="30.0"/><rect x="933.7" y="800.0" width="28.6" height="30.0"/><rect x="933.7" y="860.0" width="28.6" height="30.0"/><rect x="933.7" y="920.0" width="28.6" height="30.0"/><rect x="985.7" y="380.0" width="28.6" height="30.0"/><rect x="985.7" y="440.0" width="28.6" height="30.0"/><rect x="985.7" y="500.0" width="28.6" height="30.0"/><rect x="985.7" y="560.0" width="28.6" height="30.0"/><rect x="985.7" y="620.0" width="28.6" height="30.0"/><rect x="985.7" y="680.0" width="28.6" height="30.0"/><rect x="985.7" y="740.0" width="28.6" height="30.0"/><rect x="985.7" y="800.0" width="28.6" height="30.0"/><rect x="985.7" y="860.0" width="28.6" height="30.0"/><rect x="985.7" y="920.0" width="28.6" height="30.0"/><rect x="1037.7" y="380.0" width="28.6" height="30.0"/><rect x="1037.7" y="440.0" width="28.6" height="30.0"/><rect x="1037.7" y="500.0" width="28.6" height="30.0"/><rect x="1037.7" y="560.0" width="28.6" height="30.0"/><rect x="1037.7" y="620.0" width="28.6" height="30.0"/><rect x="1037.7" y="680.0" width="28.6" height="30.0"/><rect x="1037.7" y="740.0" width="28.6" height="30.0"/><rect x="1037.7" y="800.0" width="28.6" height="30.0"/><rect x="1037.7" y="860.0" width="28.6" height="30.0"/><rect x="1037.7" y="920.0" width="28.6" height="30.0"/><rect x="1166.4" y="240.0" width="35.2" height="30.0"/><rect x="1166.4" y="300.0" width="35.2" height="30.0"/><rect x="1166.4" y="360.0" width="35.2" height="30.0"/><rect x="1166.4" y="420.0" width="35.2" height="30.0"/><rect x="1166.4" y="480.0" width="35.2" height="30.0"/><rect x="1166.4" y="540.0" width="35.2" height="30.0"/><rect x="1166.4" y="600.0" width="35.2" height="30.0"/><rect x="1166.4" y="660.0" width="35.2" height="30.0"/><rect x="1166.4" y="720.0" width="35.2" height="30.0"/><rect x="1166.4" y="780.0" width="35.2" height="30.0"/><rect x="1166.4" y="840.0" width="35.2" height="30.0"/><rect x="1166.4" y="900.0" width="35.2" height="30.0"/><rect x="1166.4" y="960.0" width="35.2" height="30.0"/><rect x="1230.4" y="240.0" width="35.2" height="30.0"/><rect x="1230.4" y="300.0" width="35.2" height="30.0"/><rect x="1230.4" y="360.0" width="35.2" height="30.0"/><rect x="1230.4" y="420.0" width="35.2" height="30.0"/><rect x="1230.4" y="480.0" width="35.2" height="30.0"/><rect x="1230.4" y="540.0" width="35.2" height="30.0"/><rect x="1230.4" y="600.0" width="35.2" height="30.0"/><rect x="1230.4" y="660.0" width="35.2" height="30.0"/><rect x="1230.4" y="720.0" width="35.2" height="30.0"/><rect x="1230.4" y="780.0" width="35.2" height="30.0"/><rect x="1230.4" y="840.0" width="35.2" height="30.0"/><rect x="1230.4" y="900.0" width="35.2" height="30.0"/><rect x="1230.4" y="960.0" width="35.2" height="30.0"/><rect x="1294.4" y="240.0" width="35.2" height="30.0"/><rect x="1294.4" y="300.0" width="35.2" height="30.0"/><rect x="1294.4" y="360.0" width="35.2" height="30.0"/><rect x="1294.4" y="420.0" width="35.2" height="30.0"/><rect x="1294.4" y="480.0" width="35.2" height="30.0"/><rect x="1294.4" y="540.0" width="35.2" height="30.0"/><rect x="1294.4" y="600.0" width="35.2" height="30.0"/><rect x="1294.4" y="660.0" width="35.2" height="30.0"/><rect x="1294.4" y="720.0" width="35.2" height="30.0"/><rect x="1294.4" y="780.0" width="35.2" height="30.0"/><rect x="1294.4" y="840.0" width="35.2" height="30.0"/><rect x="1294.4" y="900.0" width="35.2" height="30.0"/><rect x="1294.4" y="960.0" width="35.2" height="30.0"/><rect x="1423.9" y="460.0" width="24.2" height="30.0"/><rect x="1423.9" y="520.0" width="24.2" height="30.0"/><rect x="1423.9" y="580.0" width="24.2" height="30.0"/><rect x="1423.9" y="640.0" width="24.2" height="30.0"/><rect x="1423.9" y="700.0" width="24.2" height="30.0"/><rect x="1423.9" y="760.0" width="24.2" height="30.0"/><rect x="1423.9" y="820.0" width="24.2" height="30.0"/><rect x="1423.9" y="880.0" width="24.2" height="30.0"/><rect x="1423.9" y="940.0" width="24.2" height="30.0"/><rect x="1467.9" y="460.0" width="24.2" height="30.0"/><rect x="1467.9" y="520.0" width="24.2" height="30.0"/><rect x="1467.9" y="580.0" width="24.2" height="30.0"/><rect x="1467.9" y="640.0" width="24.2" height="30.0"/><rect x="1467.9" y="700.0" width="24.2" height="30.0"/><rect x="1467.9" y="760.0" width="24.2" height="30.0"/><rect x="1467.9" y="820.0" width="24.2" height="30.0"/><rect x="1467.9" y="880.0" width="24.2" height="30.0"/><rect x="1467.9" y="940.0" width="24.2" height="30.0"/><rect x="1511.9" y="460.0" width="24.2" height="30.0"/><rect x="1511.9" y="520.0" width="24.2" height="30.0"/><rect x="1511.9" y="580.0" width="24.2" height="30.0"/><rect x="1511.9" y="640.0" width="24.2" height="30.0"/><rect x="1511.9" y="700.0" width="24.2" height="30.0"/><rect x="1511.9" y="760.0" width="24.2" height="30.0"/><rect x="1511.9" y="820.0" width="24.2" height="30.0"/><rect x="1511.9" y="880.0" width="24.2" height="30.0"/><rect x="1511.9" y="940.0" width="24.2" height="30.0"/></g>
  <!-- brass baseline — a restrained premium detail -->
  <rect x="112.00000000000001" y="600" width="128" height="3" fill="#a98742"/>
  <text x="112.00000000000001" y="500" font-family="Georgia, serif" font-weight="700" font-size="60" fill="#211d17">Nesting Tree – Shaurya</text>
  <text x="112.00000000000001" y="572" font-family="system-ui, sans-serif" font-size="28" letter-spacing="2" fill="#211d17" opacity="0.65">PROJECT — BUILDING EXTERIOR PLACEHOLDER</text>
</svg>