<svg xmlns="http://www.w3.org/2000/svg" width="1200" height="900" viewBox="0 0 1200 900" role="img" aria-label="Prithvi · Lifestyle — placeholder">
  <defs>
    <linearGradient id="g" x1="0" y1="0" x2="1" y2="1">
      <stop offset="0" stop-color="#faf6ee"/>
      <stop offset="0.55" stop-color="#f0e8d8"/>
      <stop offset="1" stop-color="#e4dac6"/>
    </linearGradient>
  </defs>
  <rect width="1200" height="900" fill="url(#g)"/>
  <g opacity="0.16" fill="#211d17"><rect x="672.0" y="306.0" width="156.0" height="594.0"/><rect x="840.0" y="180.0" width="192.0" height="720.0"/><rect x="1044.0" y="378.0" width="132.0" height="522.0"/></g><g opacity="0.5" fill="#faf6ee"><rect x="700.3" y="342.0" width="21.5" height="27.0"/><rect x="700.3" y="396.0" width="21.5" height="27.0"/><rect x="700.3" y="450.0" width="21.5" height="27.0"/><rect x="700.3" y="504.0" width="21.5" height="27.0"/><rect x="700.3" y="558.0" width="21.5" height="27.0"/><rect x="700.3" y="612.0" width="21.5" height="27.0"/><rect x="700.3" y="666.0" width="21.5" height="27.0"/><rect x="700.3" y="720.0" width="21.5" height="27.0"/><rect x="700.3" y="774.0" width="21.5" height="27.0"/><rect x="700.3" y="828.0" width="21.5" height="27.0"/><rect x="739.3" y="342.0" width="21.5" height="27.0"/><rect x="739.3" y="396.0" width="21.5" height="27.0"/><rect x="739.3" y="450.0" width="21.5" height="27.0"/><rect x="739.3" y="504.0" width="21.5" height="27.0"/><rect x="739.3" y="558.0" width="21.5" height="27.0"/><rect x="739.3" y="612.0" width="21.5" height="27.0"/><rect x="739.3" y="666.0" width="21.5" height="27.0"/><rect x="739.3" y="720.0" width="21.5" height="27.0"/><rect x="739.3" y="774.0" width="21.5" height="27.0"/><rect x="739.3" y="828.0" width="21.5" height="27.0"/><rect x="778.3" y="342.0" width="21.5" height="27.0"/><rect x="778.3" y="396.0" width="21.5" height="27.0"/><rect x="778.3" y="450.0" width="21.5" height="27.0"/><rect x="778.3" y="504.0" width="21.5" height="27.0"/><rect x="778.3" y="558.0" width="21.5" height="27.0"/><rect x="778.3" y="612.0" width="21.5" height="27.0"/><rect x="778.3" y="666.0" width="21.5" height="27.0"/><rect x="778.3" y="720.0" width="21.5" height="27.0"/><rect x="778.3" y="774.0" width="21.5" height="27.0"/><rect x="778.3" y="828.0" width="21.5" height="27.0"/><rect x="874.8" y="216.0" width="26.4" height="27.0"/><rect x="874.8" y="270.0" width="26.4" height="27.0"/><rect x="874.8" y="324.0" width="26.4" height="27.0"/><rect x="874.8" y="378.0" width="26.4" height="27.0"/><rect x="874.8" y="432.0" width="26.4" height="27.0"/><rect x="874.8" y="486.0" width="26.4" height="27.0"/><rect x="874.8" y="540.0" width="26.4" height="27.0"/><rect x="874.8" y="594.0" width="26.4" height="27.0"/><rect x="874.8" y="648.0" width="26.4" height="27.0"/><rect x="874.8" y="702.0" width="26.4" height="27.0"/><rect x="874.8" y="756.0" width="26.4" height="27.0"/><rect x="874.8" y="810.0" width="26.4" height="27.0"/><rect x="874.8" y="864.0" width="26.4" height="27.0"/><rect x="922.8" y="216.0" width="26.4" height="27.0"/><rect x="922.8" y="270.0" width="26.4" height="27.0"/><rect x="922.8" y="324.0" width="26.4" height="27.0"/><rect x="922.8" y="378.0" width="26.4" height="27.0"/><rect x="922.8" y="432.0" width="26.4" height="27.0"/><rect x="922.8" y="486.0" width="26.4" height="27.0"/><rect x="922.8" y="540.0" width="26.4" height="27.0"/><rect x="922.8" y="594.0" width="26.4" height="27.0"/><rect x="922.8" y="648.0" width="26.4" height="27.0"/><rect x="922.8" y="702.0" width="26.4" height="27.0"/><rect x="922.8" y="756.0" width="26.4" height="27.0"/><rect x="922.8" y="810.0" width="26.4" height="27.0"/><rect x="922.8" y="864.0" width="26.4" height="27.0"/><rect x="970.8" y="216.0" width="26.4" height="27.0"/><rect x="970.8" y="270.0" width="26.4" height="27.0"/><rect x="970.8" y="324.0" width="26.4" height="27.0"/><rect x="970.8" y="378.0" width="26.4" height="27.0"/><rect x="970.8" y="432.0" width="26.4" height="27.0"/><rect x="970.8" y="486.0" width="26.4" height="27.0"/><rect x="970.8" y="540.0" width="26.4" height="27.0"/><rect x="970.8" y="594.0" width="26.4" height="27.0"/><rect x="970.8" y="648.0" width="26.4" height="27.0"/><rect x="970.8" y="702.0" width="26.4" height="27.0"/><rect x="970.8" y="756.0" width="26.4" height="27.0"/><rect x="970.8" y="810.0" width="26.4" height="27.0"/><rect x="970.8" y="864.0" width="26.4" height="27.0"/><rect x="1067.9" y="414.0" width="18.2" height="27.0"/><rect x="1067.9" y="468.0" width="18.2" height="27.0"/><rect x="1067.9" y="522.0" width="18.2" height="27.0"/><rect x="1067.9" y="576.0" width="18.2" height="27.0"/><rect x="1067.9" y="630.0" width="18.2" height="27.0"/><rect x="1067.9" y="684.0" width="18.2" height="27.0"/><rect x="1067.9" y="738.0" width="18.2" height="27.0"/><rect x="1067.9" y="792.0" width="18.2" height="27.0"/><rect x="1067.9" y="846.0" width="18.2" height="27.0"/><rect x="1100.9" y="414.0" width="18.2" height="27.0"/><rect x="1100.9" y="468.0" width="18.2" height="27.0"/><rect x="1100.9" y="522.0" width="18.2" height="27.0"/><rect x="1100.9" y="576.0" width="18.2" height="27.0"/><rect x="1100.9" y="630.0" width="18.2" height="27.0"/><rect x="1100.9" y="684.0" width="18.2" height="27.0"/><rect x="1100.9" y="738.0" width="18.2" height="27.0"/><rect x="1100.9" y="792.0" width="18.2" height="27.0"/><rect x="1100.9" y="846.0" width="18.2" height="27.0"/><rect x="1133.9" y="414.0" width="18.2" height="27.0"/><rect x="1133.9" y="468.0" width="18.2" height="27.0"/><rect x="1133.9" y="522.0" width="18.2" height="27.0"/><rect x="1133.9" y="576.0" width="18.2" height="27.0"/><rect x="1133.9" y="630.0" width="18.2" height="27.0"/><rect x="1133.9" y="684.0" width="18.2" height="27.0"/><rect x="1133.9" y="738.0" width="18.2" height="27.0"/><rect x="1133.9" y="792.0" width="18.2" height="27.0"/><rect x="1133.9" y="846.0" width="18.2" height="27.0"/></g>
  <!-- brass baseline — a restrained premium detail -->
  <rect x="84.00000000000001" y="540" width="96" height="3" fill="#a98742"/>
  <text x="84.00000000000001" y="450" font-family="Georgia, serif" font-weight="700" font-size="54" fill="#211d17">Prithvi · Lifestyle</text>
  <text x="84.00000000000001" y="514.8" font-family="system-ui, sans-serif" font-size="25" letter-spacing="2" fill="#211d17" opacity="0.65">LIFESTYLE PLACEHOLDER</text>
</svg>